<?xml version="1.0" encoding="utf-8"?>
<!-- Generator: Adobe Illustrator 25.2.2, SVG Export Plug-In . SVG Version: 6.00 Build 0)  -->
<svg version="1.1" id="Layer_1" xmlns="http://www.w3.org/2000/svg" xmlns:xlink="http://www.w3.org/1999/xlink" x="0px" y="0px"
	 viewBox="0 0 100 125" style="enable-background:new 0 0 100 125;" xml:space="preserve">
<style type="text/css">
	.st0{fill:none;stroke:#000000;stroke-width:6;stroke-miterlimit:10;}
</style>
<g>
	<path d="M7.4,56.4C6,55.3,4.7,54,3.5,52.8c0,0.4-0.1,0.8-0.1,1.2c0.3,1.8,0.2,3.6-0.3,5.4c0.3,0.3,0.7,0.6,1,0.9
		c0.7,0.6,1.5,1.2,2.3,1.8c1.4-1.1,2.9-2.1,4.5-3C9.7,58.3,8.5,57.4,7.4,56.4z"/>
	<path d="M72.6,107.7c0.2-0.8,0.4-1.6,0.5-2.4c0.2-0.9,0.3-1.9,0.4-2.9c-1.6-0.7-3.2-1.5-4.8-2.4c-0.1,1.5-0.3,3-0.6,4.4
		c-0.3,1.9-0.8,3.7-1.4,5.4C68.3,108.7,70.3,107.9,72.6,107.7z"/>
	<path d="M68.6,67.9c-3.1-7.9-7.5-15.5-12.8-22.2c-1.1,1.2-2.2,2.5-3.3,3.8C57,55.4,60.8,62,63.6,68.8
		C65.3,68.6,66.9,68.3,68.6,67.9z"/>
	<path d="M71,75.1c-1.6,0.4-3.3,0.7-4.9,1c1.5,5,2.5,10.1,2.8,15.2c1.7,1.1,3.4,2.1,5.2,3C73.9,87.9,72.9,81.4,71,75.1z"/>
	<path d="M25.7,23c-0.6-0.2-1.1-0.4-1.7-0.5c-1,1.7-2.4,3.1-4.2,4c1.4,0.4,2.8,0.8,4.2,1.3c8.7,3.2,16.8,8.8,23.6,16
		c1.1-1.3,2.2-2.5,3.3-3.8C43.5,32.4,35,26.4,25.7,23z"/>
	<path d="M28.1,96.3c-1.3,0.6-2.7,1.2-4.1,1.7c-2,0.7-4.1,1.3-6.1,1.7c0.1,0.3,0.1,0.6,0.2,0.9c1.4,0.9,2.6,2.1,3.4,3.4
		c1.4-0.4,2.8-0.8,4.2-1.3c0.9-0.3,1.8-0.7,2.7-1.1C28.2,99.9,28.1,98.1,28.1,96.3z"/>
	<path d="M30.8,108.2c0.2,0,0.3,0,0.5,0c2,0,3.6,0.4,5.1,1.1c-0.5-1.6-0.9-3.2-1.2-4.9c-1.6-9.2-0.7-18.9,2.1-28.4
		c-1.7-0.3-3.3-0.6-4.9-1c-3,10.1-3.9,20.5-2.2,30.3C30.3,106.3,30.6,107.3,30.8,108.2z"/>
	<path d="M31.4,52.2c-10.2,2.5-19.7,6.9-27.3,13.3c-1,0.9-2,1.8-2.9,2.7c0.1,0.6,0.2,1.3,0.2,2c0.8,0.9,1.5,1.9,2,3.1
		c1.2-1.3,2.5-2.6,4-3.8c7.1-6,16-10.1,25.6-12.4C32.5,55.4,31.9,53.8,31.4,52.2z"/>
	<path d="M34.5,34.5c-1.7-1.1-3.4-2.1-5.2-3c0,2.6,0.2,5.2,0.6,7.8c1.3,10.1,4.9,20.3,10.2,29.5c2,0.3,4.1,0.5,6.2,0.7
		C40.1,59.8,36,48.8,34.8,37.9C34.6,36.8,34.5,35.6,34.5,34.5z"/>
	<path d="M75,24.2c0.2,1.7,0.3,3.5,0.3,5.3c1.3-0.6,2.7-1.2,4.1-1.7c0.8-0.3,1.7-0.6,2.5-0.8c-1.7-0.3-3.2-1-4.4-2
		C76.6,24.8,75.7,24.5,75,24.2z"/>
	<path d="M72.7,22.7c-2.1-0.6-3.8-1.8-5-3.3c0.2,0.6,0.3,1.3,0.4,2c1.6,9.2,0.7,19-2.1,28.4c1.7,0.3,3.3,0.6,4.9,1
		c2.7-9.1,3.6-18.5,2.5-27.4C73.3,23.2,73,22.9,72.7,22.7z"/>
	<path d="M78.6,103c1.1-1.6,2.5-2.9,4.1-4c-1.1-0.3-2.2-0.6-3.3-1c-8.7-3.2-16.8-8.8-23.6-16c-1.1,1.3-2.2,2.6-3.3,3.8
		c7.3,7.6,15.8,13.6,25.1,17C78,102.8,78.3,102.9,78.6,103z"/>
	<path d="M50,77.2c-1.6,0-3.2-0.1-4.8-0.2c0.7,1,1.5,2,2.3,3C48.4,79.1,49.2,78.2,50,77.2z"/>
	<path d="M51,75.9c1.3-1.6,2.5-3.3,3.6-5c-9.9,0.4-19.8-1-28.9-4.2c-2.5-0.9-5-1.9-7.3-3.1c-1.8,0.9-3.5,1.9-5.2,3
		c3.6,2,7.5,3.7,11.5,5.1C33.1,74.4,42.1,75.9,51,75.9z"/>
	<path d="M98,55.5c0-0.3,0-0.7,0-1c-0.7,0.7-1.4,1.3-2.1,1.9C87.3,63.7,76,68.2,64.1,70c-1.1,1.9-2.2,3.7-3.4,5.4
		c14.2-1.5,27.8-6.4,38-14.8C98.4,59,98.1,57.3,98,55.5z"/>
	<path d="M38.4,68.6c-0.8-1.4-1.5-2.8-2.2-4.2c-0.5,1.2-1,2.3-1.5,3.5C36,68.2,37.2,68.4,38.4,68.6z"/>
	<path d="M64.9,57.2c0.8,1.4,1.5,2.8,2.2,4.2c0.5-1.2,1-2.3,1.5-3.5C67.3,57.6,66.1,57.4,64.9,57.2z"/>
	<path d="M62.4,69.3c-0.7-1.7-1.4-3.4-2.3-5C54.2,75.5,45.7,85.3,35.7,92c-0.1,2-0.1,4,0,6c10.9-6.5,20.2-16.5,27-28L62.4,69.3z"/>
	<path d="M46.2,56.2c-1.7,0.1-3.4,0.3-5.1,0.5c0.7,1.6,1.4,3.2,2.1,4.7C44.1,59.7,45.1,57.9,46.2,56.2z"/>
	<path d="M51.1,48.6l0.6,0c3.6-4.5,7.7-8.6,12.2-12.1c1.2-0.9,2.5-1.9,3.8-2.7c0.1-2,0.1-4,0-6c-2.6,1.5-5,3.2-7.4,5.1
		c-5.6,4.5-10.7,9.9-15,15.9C47.2,48.7,49.1,48.6,51.1,48.6z"/>
	<path d="M54.7,54.9c-1-1.5-2.1-3-3.3-4.5l-0.4-0.5c-4.1,0-8.2,0.3-12.2,0.9c0.5,1.6,1.1,3.2,1.7,4.8C45.2,54.9,50,54.7,54.7,54.9z"
		/>
	<path d="M64.1,55.8c7.3,1.1,14.4,3.3,20.7,6.4c1.8-0.9,3.5-1.9,5.2-3c-8.7-4.9-18.8-7.8-29.3-8.9C61.9,52.1,63,53.9,64.1,55.8z"/>
</g>
<circle class="st0" cx="50" cy="64.3" r="46.5"/>
</svg>
